<svg xmlns="http://www.w3.org/2000/svg" viewBox="2 3.5 63 63">
<path d="M12 6 h30 l12 12 v38 a8 8 0 0 1 -8 8 h-34 a8 8 0 0 1 -8 -8 v-42 a8 8 0 0 1 8 -8 z" fill="#fffaf0" stroke="#27272a" stroke-width="4" stroke-linejoin="round"/>
<path d="M42 6 v8 a4 4 0 0 0 4 4 h8" fill="#f1e7d3" stroke="#27272a" stroke-width="4" stroke-linejoin="round"/>
<ellipse cx="16.5" cy="41" rx="4.5" ry="3" fill="#f2b3aa"/><ellipse cx="44.5" cy="41" rx="4.5" ry="3" fill="#f2b3aa"/>
<ellipse cx="23" cy="31" rx="4.6" ry="5.6" fill="#27272a"/><ellipse cx="38" cy="31" rx="4.6" ry="5.6" fill="#27272a"/>
<path d="M25.5 41 q5 5 10 0" fill="none" stroke="#27272a" stroke-width="3.6" stroke-linecap="round"/>
</svg>